<svg id="Layer_1" data-name="Layer 1" 
  xmlns="http://www.w3.org/2000/svg" viewBox="0 0 185.24 52.2">
  <path d="M0,.79Q1.52.58,3.42.43C4.69.34,6,.26,7.34.22S10,.13,11.27.11s2.41,0,3.42,0A31.46,31.46,0,0,1,26.14,1.94a19.52,19.52,0,0,1,7.7,5.26,21,21,0,0,1,4.32,8.06,36.72,36.72,0,0,1,1.37,10.3,37,37,0,0,1-1.3,9.86,22.23,22.23,0,0,1-4.32,8.43A21.65,21.65,0,0,1,26,49.75,29.57,29.57,0,0,1,13.75,52c-.77,0-1.79,0-3.06-.07l-4-.18-3.92-.21C1.56,51.44.62,51.36,0,51.26ZM15.48,8.86c-1.06,0-2.12,0-3.2.07a21.89,21.89,0,0,0-2.42.21V42.91a5.32,5.32,0,0,0,1,.11l1.47.07,1.51.07c.48,0,.84,0,1.08,0a14.6,14.6,0,0,0,7-1.48,11.76,11.76,0,0,0,4.39-3.92,15.79,15.79,0,0,0,2.27-5.65,33.32,33.32,0,0,0,.65-6.59,30.81,30.81,0,0,0-.58-5.94,14.8,14.8,0,0,0-2.12-5.36,12,12,0,0,0-4.21-3.89A13.57,13.57,0,0,0,15.48,8.86Z" fill="#000"/>
  <path d="M43.87,5a4.71,4.71,0,0,1,1.55-3.56A5.92,5.92,0,0,1,49.7,0a6.48,6.48,0,0,1,4.43,1.48A4.55,4.55,0,0,1,55.82,5a4.34,4.34,0,0,1-1.69,3.49A6.7,6.7,0,0,1,49.7,9.94a6.12,6.12,0,0,1-4.28-1.41A4.49,4.49,0,0,1,43.87,5Zm1.37,10.15H54.6v36H45.24Z" fill="#000"/>
  <path d="M76.8,41.26A2.71,2.71,0,0,0,75.58,39a15.22,15.22,0,0,0-3-1.58c-1.2-.48-2.52-1-4-1.48a14.71,14.71,0,0,1-4-2.09,11.34,11.34,0,0,1-3-3.38,10.18,10.18,0,0,1-1.22-5.29c0-3.55,1-6.27,3.16-8.14s5.16-2.81,9.15-2.81a29.15,29.15,0,0,1,7.41.87A21.28,21.28,0,0,1,85.3,17l-2.09,6.77c-1.11-.43-2.5-.89-4.18-1.37a18.5,18.5,0,0,0-5.11-.72q-4.17,0-4.17,3.24A2.38,2.38,0,0,0,71,27a16.35,16.35,0,0,0,3,1.48L78,30a17.26,17.26,0,0,1,4,2.05,10.86,10.86,0,0,1,3,3.28,9.9,9.9,0,0,1,1.22,5.18,11,11,0,0,1-3.49,8.61q-3.49,3.13-10.48,3.13a25.49,25.49,0,0,1-7.16-1A22.31,22.31,0,0,1,59.59,49l2.6-7a25,25,0,0,0,4.39,1.83,17.8,17.8,0,0,0,5.61.9,6.22,6.22,0,0,0,3.35-.79A2.9,2.9,0,0,0,76.8,41.26Z" fill="#000"/>
  <path d="M113,51.19V30.74c0-2.92-.41-5-1.23-6.33s-2.3-1.95-4.46-1.95a6.72,6.72,0,0,0-4.36,1.62,7.73,7.73,0,0,0-2.63,4.14v23H90.94V.79h9.35V19.22h.29a13,13,0,0,1,4.25-3.67,13.38,13.38,0,0,1,6.41-1.37,14.77,14.77,0,0,1,4.82.72,7.94,7.94,0,0,1,3.5,2.38,10.7,10.7,0,0,1,2.08,4.5,30.36,30.36,0,0,1,.69,7V51.19Z" fill="#000"/>
  <path d="M157.75,48.1A18.35,18.35,0,0,1,151.88,51,25.73,25.73,0,0,1,144,52.2q-8.72,0-12.75-5.08t-4-13.93q0-9.49,4.54-14.25t12.74-4.76a19.81,19.81,0,0,1,5.33.72,12.51,12.51,0,0,1,4.61,2.38,11.74,11.74,0,0,1,3.24,4.46,17.65,17.65,0,0,1,1.22,7,31.31,31.31,0,0,1-.18,3.24q-.18,1.72-.54,3.6h-21.6q.22,4.53,2.34,6.84t6.88,2.3A15.36,15.36,0,0,0,154.65,42ZM144.36,21.67q-3.68,0-5.44,2.2a10.89,10.89,0,0,0-2.12,5.87h13.39c.19-2.6-.2-4.59-1.19-6A5.29,5.29,0,0,0,144.36,21.67Z" fill="#000"/>
  <path d="M184,24a12.22,12.22,0,0,0-4-.8,6.59,6.59,0,0,0-4.21,1.34,6.38,6.38,0,0,0-2.27,3.42V51.19h-9.36v-36h7.28l1.08,4.75h.28a9.83,9.83,0,0,1,3.32-4.1A8.39,8.39,0,0,1,181,14.4a13.53,13.53,0,0,1,4.25.79Z" fill="#000"/>
</svg>
